<?xml version="1.0" standalone="no"?>
<!DOCTYPE svg PUBLIC "-//W3C//DTD SVG 20010904//EN"
 "http://www.w3.org/TR/2001/REC-SVG-20010904/DTD/svg10.dtd">
<svg version="1.0" xmlns="http://www.w3.org/2000/svg"
 width="214.000000pt" height="261.000000pt" viewBox="0 0 214.000000 261.000000"
 preserveAspectRatio="xMidYMid meet">

<g transform="translate(0.000000,261.000000) scale(0.100000,-0.100000)"
fill="#000000" stroke="none">
<path d="M338 2314 c-5 -4 -8 -83 -8 -176 l0 -168 345 0 c397 0 428 -4 491
-62 63 -58 87 -128 82 -239 -3 -72 -9 -94 -35 -140 -18 -33 -47 -66 -74 -84
-42 -29 -50 -30 -177 -35 l-132 -5 165 -165 165 -164 47 12 c166 45 317 217
370 422 23 92 21 261 -6 363 -56 213 -201 368 -397 423 -49 14 -126 17 -444
21 -212 3 -388 2 -392 -3z"/>
<path d="M330 800 l0 -600 180 0 180 0 0 423 -1 422 -173 178 c-96 97 -176
177 -180 177 -3 0 -6 -270 -6 -600z"/>
<path d="M1105 1059 c-22 -4 -123 -8 -225 -8 l-185 -1 425 -425 425 -425 240
0 240 0 -435 435 c-239 239 -437 434 -440 434 -3 -1 -23 -5 -45 -10z"/>
</g>
</svg>
